Coordinates
version=1
nRows=13
nColumns=36
inDegrees=yes

Units are S.I. units (second, meters, Newtons, ...)
If the header above contains a line with 'inDegrees', this indicates whether rotational values are in degrees (yes) or radians (no).

endheader
time	pelvis_tilt	pelvis_list	pelvis_rotation	pelvis_tx	pelvis_ty	pelvis_tz	hip_flexion_r	hip_adduction_r	hip_rotation_r	knee_angle_r	knee_angle_r_beta	ankle_angle_r	subtalar_angle_r	mtp_angle_r	hip_flexion_l	hip_adduction_l	hip_rotation_l	knee_angle_l	knee_angle_l_beta	ankle_angle_l	subtalar_angle_l	mtp_angle_l	lumbar_extension	lumbar_bending	lumbar_rotation	arm_flex_r	arm_add_r	arm_rot_r	elbow_flex_r	pro_sup_r	arm_flex_l	arm_add_l	arm_rot_l	elbow_flex_l	pro_sup_l
      2.94166670	    -19.49139696	     -1.62160560	     -3.94577429	      0.24300591	      0.74341624	     -0.05574299	     66.48665904	      0.44177882	      4.02003450	     74.68070183	      1.30342413	     26.59716716	     -1.72904139	     -7.49999987	     63.47133204	     -6.52011161	     10.92618227	     77.05887054	      1.34493101	     20.44191425	    -25.38643146	     -7.49999987	    -31.03058414	      0.00080161	      1.65741697	     46.43937423	     -7.69663459	     12.86930435	     94.21139852	     87.52351928	     50.17344180	     -9.18774532	   -337.41419425	     91.22679382	     75.61910382
      2.94583330	    -19.06719083	     -1.68469951	     -3.81744076	      0.24508779	      0.74972177	     -0.05746231	     65.31579829	      0.37947732	      4.08898049	     73.62028832	      1.28491643	     26.20770078	     -1.84880724	     -7.49999987	     62.29197783	     -6.49296234	     10.88635819	     75.88143665	      1.32438091	     20.24026903	    -25.31842992	     -7.49999987	    -31.15890514	      0.05880175	      1.56545068	     45.99161644	     -7.79040394	     12.08433275	     91.91025641	     86.91455751	     48.98197169	     -9.02180533	   -338.34688203	     89.49138764	     74.59319729
      2.95000000	    -18.73743721	     -1.66841837	     -3.62408519	      0.24914847	      0.75330082	     -0.05564266	     64.20207531	      0.23524030	      4.06245965	     72.80027064	      1.27060442	     26.03404673	     -2.05261589	     -7.49999987	     61.12591006	     -6.49732068	     10.73649699	     74.70223840	      1.30380002	     20.53434611	    -24.50996755	     -7.49999987	    -31.08756978	      0.12705334	      1.55267089	     45.32211280	     -8.07568033	     11.39780780	     90.02985047	     85.54609299	     47.81850886	     -9.01159387	   -338.84426937	     87.65535956	     73.17567708
      2.95416670	    -18.25739190	     -1.69390250	     -3.54732151	      0.25248723	      0.76044527	     -0.05926466	     62.70446810	      0.09632952	      4.14221362	     71.59671977	      1.24959849	     25.78827705	     -2.10985974	     -7.49999987	     59.67994835	     -6.39617242	     10.56976285	     73.54888939	      1.28367028	     20.51529956	    -24.02731347	     -7.49999987	    -31.10544885	      0.28275694	      1.37370774	     44.53058868	     -8.14022091	     10.64474069	     87.44411321	     85.76397725	     46.39172251	     -8.99959014	   -339.67005105	     85.82116938	     72.74083992
      2.95833330	    -17.91093718	     -1.74519216	     -3.48943670	      0.25173471	      0.76504369	     -0.06072265	     61.60331089	     -0.07220580	      4.10148585	     70.59364787	      1.23209159	     25.54462875	     -1.99479183	     -7.49999987	     58.62965363	     -6.30210132	     10.38365493	     72.57855524	      1.26673476	     20.47234326	    -23.84641424	     -7.49999987	    -31.05310578	      0.43413764	      1.45814405	     43.92946461	     -8.56606145	     10.19800989	     85.23263019	     84.41567236	     45.35673220	     -8.66570387	   -340.04887821	     83.63342715	     71.33218488
      2.96250000	    -17.48147852	     -1.88446734	     -3.36098814	      0.25419105	      0.77195179	     -0.05941097	     60.24434039	     -0.12372780	      3.95385312	     69.37861497	      1.21088526	     25.25062190	     -1.80944363	     -7.49999987	     57.38468720	     -6.31929584	     10.32697450	     71.40721777	      1.24629106	     20.11867392	    -23.79695094	     -7.49999987	    -31.13480766	      0.59825998	      1.56091571	     43.08136050	     -8.80394163	      9.47632327	     83.03183262	     83.77746318	     44.30349803	     -8.45594119	   -340.59342728	     81.35642057	     70.26540557
      2.96666670	    -17.14083161	     -2.02875647	     -3.19883324	      0.25582881	      0.77490164	     -0.05853916	     59.18528357	     -0.15142223	      3.70990552	     68.49602958	      1.19548124	     24.98751232	     -1.88825146	     -7.49999987	     56.41939128	     -6.43592296	     10.33025356	     70.50553087	      1.23055365	     19.99537656	    -23.52139377	     -7.49999987	    -31.06934437	      0.79947175	      1.53070452	     42.29042843	     -9.14702773	      8.84603437	     80.98045869	     82.53714380	     43.19639832	     -8.28537787	   -341.15396970	     79.45071452	     69.08923296
      2.97083330	    -16.84448214	     -2.07371581	     -3.03489567	      0.25705369	      0.78012407	     -0.05997600	     58.20328114	     -0.29865225	      3.59843467	     67.59525065	      1.17975968	     24.73624355	     -1.75785411	     -7.49999987	     55.51562455	     -6.38755038	     10.35340538	     69.62870289	      1.21525012	     19.48602955	    -23.63151677	     -7.49999987	    -30.87726266	      1.03728695	      1.10553335	     41.63288276	     -8.99393334	      8.73621299	     78.16348156	     82.35519387	     41.95318653	     -8.48891497	   -341.85356767	     77.57862296	     67.75426954
      2.97500000	    -16.30889595	     -2.19775223	     -2.76016438	      0.26138001	      0.78717530	     -0.05705922	     56.67138801	     -0.33179491	      3.37088145	     66.39729029	      1.15885133	     24.52312575	     -1.68497801	     -7.49999987	     54.10648302	     -6.53842052	     10.42947613	     68.35321157	      1.19298860	     19.15874602	    -23.29396704	     -7.49999987	    -31.03376114	      1.16396967	      0.95682897	     40.55637833	     -9.03708960	      8.01754198	     76.35326931	     82.33782418	     40.81823803	     -8.49183151	   -342.54023587	     75.86591349	     67.26872045
      2.97916670	    -15.78555762	     -2.26450029	     -2.52854207	      0.26815581	      0.79290448	     -0.05846323	     54.98865737	     -0.53088918	      3.02686361	     65.06919004	      1.13567161	     24.29059712	     -1.34080473	     -7.49999987	     52.67536337	     -6.63166907	     10.42082381	     67.22488294	      1.17329555	     18.90453346	    -22.92766938	     -7.49999987	    -30.97519998	      1.24481491	      0.76361162	     39.37067978	     -8.94581980	      7.45015045	     73.97142462	     82.20361484	     39.57351926	     -8.40414169	   -343.28760864	     73.46031245	     66.41495652
      2.98333330	    -15.07185704	     -2.22803532	     -2.53942034	      0.26768110	      0.79989356	     -0.06002592	     53.39420195	     -0.67914958	      2.92719654	     63.83488309	      1.11412889	     23.84117095	     -1.29349892	     -7.49999987	     50.95156381	     -6.61892337	     10.14502821	     65.93051075	      1.15070449	     18.68979199	    -22.75729988	     -7.49999987	    -31.37676201	      1.21220272	      0.67511426	     38.68451242	     -8.84317742	      6.86787587	     71.95036165	     82.00626180	     38.66943477	     -8.32269679	   -344.23607812	     71.26517475	     65.95140803
      2.98750000	    -14.39333951	     -2.05622763	     -2.65205469	      0.27198631	      0.80628706	     -0.06710831	     51.75333706	     -1.21085122	      2.81619988	     62.49791488	      1.09079439	     23.27358802	     -1.01321536	     -7.49999987	     49.21239393	     -6.29404129	      9.79444354	     64.57005235	      1.12696001	     18.54379724	    -22.75571133	     -7.49999987	    -31.59255805	      1.30155827	      0.45862127	     38.06758653	     -8.78820909	      6.65433324	     69.51686988	     81.73547299	     37.59855943	     -7.77051726	   -345.21654595	     68.70784223	     65.40075592
      2.99166670	    -13.92215860	     -1.94727808	     -2.70245485	      0.27253978	      0.81006367	     -0.06496293	     50.51529055	     -1.52137396	      2.63961443	     61.38338752	      1.07134222	     22.82234623	     -0.72668296	     -7.49999987	     47.92697892	     -6.18682602	      9.50438467	     63.41412196	      1.10678522	     18.61598544	    -22.44747025	     -7.49999987	    -31.63895944	      1.28573113	      0.32220780	     37.42728613	     -8.83333291	      6.50817083	     67.76790943	     81.34876786	     36.67309491	     -7.33489677	   -346.18170360	     66.58436638	     64.89274588
